<svg version="1.1" id="Layer_1" xmlns="http://www.w3.org/2000/svg" xmlns:xlink="http://www.w3.org/1999/xlink" x="0px" y="0px"
	 width="100%" viewBox="0 0 187 127" enable-background="new 0 0 187 127" xml:space="preserve">
<path fill="" opacity="0" stroke="none" 
	d="
M1.000000,60.000000 
	C1.000000,40.347359 1.000000,20.694721 1.000000,1.021040 
	C63.274841,1.021040 125.549690,1.021040 187.912262,1.021040 
	C187.912262,43.244492 187.912262,85.489227 187.912262,127.866982 
	C125.666855,127.866982 63.333469,127.866982 1.000000,127.866982 
	C1.000000,110.245613 1.000000,92.591469 1.351711,74.356766 
	C14.659677,81.736603 27.615931,89.696991 40.828613,97.814941 
	C42.793236,94.711533 44.449429,92.095329 46.369793,89.061829 
	C34.489487,81.574532 22.893845,74.266632 10.943132,66.734955 
	C23.039036,59.045574 34.607769,51.691315 46.403099,44.193005 
	C44.329048,40.909615 42.596817,38.167358 40.857841,35.414425 
	C27.268362,43.796844 14.134180,51.898422 1.000000,60.000000 
M87.589714,38.039639 
	C81.205109,51.674149 74.820503,65.308662 68.296425,79.241020 
	C78.297768,83.848648 87.734589,88.196205 97.429062,92.662460 
	C108.827271,68.204071 120.006584,44.215397 131.280304,20.024149 
	C121.346764,15.360582 111.942451,10.945474 102.193420,6.368530 
	C97.339348,16.905886 92.628067,27.133249 87.589714,38.039639 
M179.394470,58.140259 
	C167.350327,50.588112 155.306198,43.035965 142.905807,35.260433 
	C140.968155,38.486526 139.306091,41.253811 137.495468,44.268417 
	C149.307190,51.777802 160.686554,59.012310 172.796463,66.711273 
	C160.419006,74.532745 148.995911,81.751144 137.337204,89.118431 
	C139.527878,92.408638 141.318634,95.098190 143.144943,97.841156 
	C156.876740,89.314682 170.170975,81.135330 183.341202,72.761009 
	C184.606537,71.956444 185.446289,70.036629 185.889664,68.466789 
	C187.369583,63.226646 184.164780,60.558559 179.394470,58.140259 
M79.306900,96.211571 
	C74.371994,93.954582 69.437088,91.697586 63.759136,89.100761 
	C64.907532,99.668045 65.969086,109.436180 67.104164,119.880905 
	C75.921127,114.034584 84.101479,108.610382 92.905571,102.772598 
	C87.984825,100.422989 83.969559,98.505745 79.306900,96.211571 
z"/>
<path fill="#28eea7e6" opacity="1.000000" stroke="none" 
	d="
M1.000000,60.464649 
	C14.134180,51.898422 27.268362,43.796844 40.857841,35.414425 
	C42.596817,38.167358 44.329048,40.909615 46.403099,44.193005 
	C34.607769,51.691315 23.039036,59.045574 10.943132,66.734955 
	C22.893845,74.266632 34.489487,81.574532 46.369793,89.061829 
	C44.449429,92.095329 42.793236,94.711533 40.828613,97.814941 
	C27.615931,89.696991 14.659677,81.736603 1.351711,73.888107 
	C1.000000,69.643097 1.000000,65.286201 1.000000,60.464649 
z"/>
<path fill="#28eea7e6" opacity="1.000000" stroke="none" 
	d="
M87.753250,37.700127 
	C92.628067,27.133249 97.339348,16.905886 102.193420,6.368530 
	C111.942451,10.945474 121.346764,15.360582 131.280304,20.024149 
	C120.006584,44.215397 108.827271,68.204071 97.429062,92.662460 
	C87.734589,88.196205 78.297768,83.848648 68.296425,79.241020 
	C74.820503,65.308662 81.205109,51.674149 87.753250,37.700127 
z"/>
<path fill="#28eea7e6" opacity="1.000000" stroke="none" 
	d="
M179.696289,58.349571 
	C184.164780,60.558559 187.369583,63.226646 185.889664,68.466789 
	C185.446289,70.036629 184.606537,71.956444 183.341202,72.761009 
	C170.170975,81.135330 156.876740,89.314682 143.144943,97.841156 
	C141.318634,95.098190 139.527878,92.408638 137.337204,89.118431 
	C148.995911,81.751144 160.419006,74.532745 172.796463,66.711273 
	C160.686554,59.012310 149.307190,51.777802 137.495468,44.268417 
	C139.306091,41.253811 140.968155,38.486526 142.905807,35.260433 
	C155.306198,43.035965 167.350327,50.588112 179.696289,58.349571 
z"/>
<path fill="#28eea7e6" opacity="1.000000" stroke="none" 
	d="
M79.630592,96.400032 
	C83.969559,98.505745 87.984825,100.422989 92.905571,102.772598 
	C84.101479,108.610382 75.921127,114.034584 67.104164,119.880905 
	C65.969086,109.436180 64.907532,99.668045 63.759136,89.100761 
	C69.437088,91.697586 74.371994,93.954582 79.630592,96.400032 
z"/>
</svg>