<svg xmlns="http://www.w3.org/2000/svg" width="40px" height="40px"
    fill="#28eea7e6" viewBox="0 0 24 24">
    <path
        d="M12 .297c-6.63 0-12 5.373-12 12 0 5.3 3.438 9.8 8.205 11.385.6.113.82-.263.82-.582v-2.165c-3.338.726-4.042-1.416-4.042-1.416-.546-1.386-1.333-1.756-1.333-1.756-1.087-.744.082-.729.082-.729 1.205.084 1.838 1.24 1.838 1.24 1.07 1.834 2.809 1.304 3.495.996.108-.775.418-1.304.763-1.604-2.665-.3-5.466-1.334-5.466-5.93 0-1.31.468-2.382 1.235-3.223-.123-.303-.535-1.523.117-3.176 0 0 1.008-.323 3.301 1.23.957-.266 1.983-.399 3.003-.404 1.02.005 2.047.138 3.005.404 2.289-1.553 3.295-1.23 3.295-1.23.653 1.653.241 2.873.119 3.176.771.841 1.232 1.913 1.232 3.223 0 4.609-2.805 5.625-5.478 5.921.43.371.823 1.102.823 2.222v3.293c0 .321.216.699.825.582C20.565 22.092 24 17.592 24 12.297c0-6.627-5.373-12-12-12z" />
</svg>